<svg class="animated" id="freepik_stories-scrum-board" xmlns="http://www.w3.org/2000/svg" viewBox="0 0 500 500" version="1.1" xmlns:xlink="http://www.w3.org/1999/xlink" xmlns:svgjs="http://svgjs.com/svgjs"><style>svg#freepik_stories-scrum-board:not(.animated) .animable {opacity: 0;}svg#freepik_stories-scrum-board.animated #freepik--background-complete--inject-43 {animation: 1s 1 forwards cubic-bezier(.36,-0.01,.5,1.38) slideDown;animation-delay: 0s;}svg#freepik_stories-scrum-board.animated #freepik--Shadow--inject-43 {animation: 1s 1 forwards cubic-bezier(.36,-0.01,.5,1.38) slideDown;animation-delay: 0s;}svg#freepik_stories-scrum-board.animated #freepik--Board--inject-43 {animation: 1s 1 forwards cubic-bezier(.36,-0.01,.5,1.38) slideDown;animation-delay: 0s;}svg#freepik_stories-scrum-board.animated #freepik--Character--inject-43 {animation: 1s 1 forwards cubic-bezier(.36,-0.01,.5,1.38) slideDown;animation-delay: 0s;}            @keyframes slideDown {                0% {                    opacity: 0;                    transform: translateY(-30px);                }                100% {                    opacity: 1;                    transform: translateY(0);                }            }        </style><g id="freepik--background-complete--inject-43" class="animable" style="transform-origin: 250px 226.87px;"><rect y="382.4" width="500" height="0.25" style="fill: rgb(235, 235, 235); transform-origin: 250px 382.525px;" id="elb3754u1113q" class="animable"></rect><rect x="396.83" y="398.49" width="53.07" height="0.25" style="fill: rgb(235, 235, 235); transform-origin: 423.365px 398.615px;" id="elble6gp6lw0h" class="animable"></rect><rect x="272.56" y="395.36" width="58.66" height="0.25" style="fill: rgb(235, 235, 235); transform-origin: 301.89px 395.485px;" id="eltesg82uvare" class="animable"></rect><rect x="380.2" y="393.92" width="19.19" height="0.25" style="fill: rgb(235, 235, 235); transform-origin: 389.795px 394.045px;" id="eles77wyx44ri" class="animable"></rect><rect x="100.47" y="390.89" width="43.19" height="0.25" style="fill: rgb(235, 235, 235); transform-origin: 122.065px 391.015px;" id="el9f9caujqfif" class="animable"></rect><rect x="79.46" y="390.89" width="15.44" height="0.25" style="fill: rgb(235, 235, 235); transform-origin: 87.18px 391.015px;" id="elhe9zwti0xla" class="animable"></rect><rect x="131.47" y="395.11" width="54.2" height="0.25" style="fill: rgb(235, 235, 235); transform-origin: 158.57px 395.235px;" id="elfubgpg8ipba" class="animable"></rect><path d="M237,337.8H43.91a5.71,5.71,0,0,1-5.7-5.71V60.66A5.71,5.71,0,0,1,43.91,55H237a5.71,5.71,0,0,1,5.71,5.71V332.09A5.71,5.71,0,0,1,237,337.8ZM43.91,55.2a5.46,5.46,0,0,0-5.45,5.46V332.09a5.46,5.46,0,0,0,5.45,5.46H237a5.47,5.47,0,0,0,5.46-5.46V60.66A5.47,5.47,0,0,0,237,55.2Z" style="fill: rgb(235, 235, 235); transform-origin: 140.46px 196.4px;" id="elxzol35xqdxg" class="animable"></path><path d="M453.31,337.8H260.21a5.72,5.72,0,0,1-5.71-5.71V60.66A5.72,5.72,0,0,1,260.21,55h193.1A5.71,5.71,0,0,1,459,60.66V332.09A5.71,5.71,0,0,1,453.31,337.8ZM260.21,55.2a5.47,5.47,0,0,0-5.46,5.46V332.09a5.47,5.47,0,0,0,5.46,5.46h193.1a5.47,5.47,0,0,0,5.46-5.46V60.66a5.47,5.47,0,0,0-5.46-5.46Z" style="fill: rgb(235, 235, 235); transform-origin: 356.75px 196.4px;" id="ell5ntk6su4a" class="animable"></path><rect x="51.61" y="309.78" width="70.97" height="12.45" rx="5.12" style="fill: rgb(235, 235, 235); transform-origin: 87.095px 316.005px;" id="el39uq5of56nh" class="animable"></rect><polygon points="71.3 322.23 61.31 322.23 49.95 382.4 59.94 382.4 71.3 322.23" style="fill: rgb(224, 224, 224); transform-origin: 60.625px 352.315px;" id="elijx8boe4ngs" class="animable"></polygon><polygon points="91.24 322.23 81.25 322.23 75.66 382.4 85.65 382.4 91.24 322.23" style="fill: rgb(224, 224, 224); transform-origin: 83.45px 352.315px;" id="el1lvkxbnb21t" class="animable"></polygon><polygon points="102.89 322.23 112.88 322.23 124.25 382.4 114.26 382.4 102.89 322.23" style="fill: rgb(224, 224, 224); transform-origin: 113.57px 352.315px;" id="elhqq0mquqv3q" class="animable"></polygon><rect x="197.16" y="70.65" width="233.65" height="203.55" style="fill: rgb(230, 230, 230); transform-origin: 313.985px 172.425px;" id="elxk1acb581xj" class="animable"></rect><rect x="200.43" y="70.65" width="237.39" height="203.55" style="fill: rgb(240, 240, 240); transform-origin: 319.125px 172.425px;" id="el0kx83l7ypmz" class="animable"></rect><rect x="197.16" y="274.21" width="233.65" height="3.94" style="fill: rgb(230, 230, 230); transform-origin: 313.985px 276.18px;" id="elgkm2lzowgy9" class="animable"></rect><rect x="204.17" y="274.21" width="237.39" height="3.94" style="fill: rgb(240, 240, 240); transform-origin: 322.865px 276.18px;" id="eljbqf621mdfd" class="animable"></rect><g id="el8z2klfl7mj5"><rect x="223.67" y="63.55" width="190.9" height="217.76" style="fill: rgb(250, 250, 250); transform-origin: 319.12px 172.43px; transform: rotate(90deg);" class="animable"></rect></g><polygon points="279.86 267.88 320.91 76.98 348.1 76.98 307.05 267.88 279.86 267.88" style="fill: rgb(255, 255, 255); transform-origin: 313.98px 172.43px;" id="elaylcs8lh64p" class="animable"></polygon><polygon points="248.12 267.88 289.17 76.98 316.36 76.98 275.31 267.88 248.12 267.88" style="fill: rgb(255, 255, 255); transform-origin: 282.24px 172.43px;" id="elntvk5jmh85" class="animable"></polygon><path d="M215.37,77.5V255.88c0,.29.36.52.8.52h1.06c.44,0,.8-.23.8-.52V77.5c0-.29-.36-.52-.8-.52h-1.06C215.73,77,215.37,77.21,215.37,77.5Z" style="fill: rgb(240, 240, 240); transform-origin: 216.7px 166.69px;" id="elmk2yap60e8" class="animable"></path><polygon points="349.78 267.88 390.83 76.98 401.43 76.98 360.38 267.88 349.78 267.88" style="fill: rgb(255, 255, 255); transform-origin: 375.605px 172.43px;" id="elc8ewfutai8m" class="animable"></polygon><g id="eldn8zsit6u8m"><rect x="331.93" y="171.81" width="190.9" height="1.25" style="fill: rgb(230, 230, 230); transform-origin: 427.38px 172.435px; transform: rotate(90deg);" class="animable"></rect></g><g id="el992hqywm1o6"><polygon points="440.14 84.9 206.49 84.9 205.58 79.44 439.24 79.44 440.14 84.9" style="fill: rgb(224, 224, 224); opacity: 0.5; transform-origin: 322.86px 82.17px;" class="animable"></polygon></g><g id="el0dtsu7whsmnh"><polygon points="440.14 103.64 206.49 103.64 205.58 98.17 439.24 98.17 440.14 103.64" style="fill: rgb(224, 224, 224); opacity: 0.5; transform-origin: 322.86px 100.905px;" class="animable"></polygon></g><g id="elj0zpmiqghod"><polygon points="440.14 122.37 206.49 122.37 205.58 116.91 439.24 116.91 440.14 122.37" style="fill: rgb(224, 224, 224); opacity: 0.5; transform-origin: 322.86px 119.64px;" class="animable"></polygon></g><g id="elybdq2wsbj9c"><polygon points="440.14 141.11 206.49 141.11 205.58 135.65 439.24 135.65 440.14 141.11" style="fill: rgb(224, 224, 224); opacity: 0.5; transform-origin: 322.86px 138.38px;" class="animable"></polygon></g><g id="elr7k9zt3e929"><polygon points="440.14 159.84 206.49 159.84 205.58 154.38 439.24 154.38 440.14 159.84" style="fill: rgb(224, 224, 224); opacity: 0.5; transform-origin: 322.86px 157.11px;" class="animable"></polygon></g><g id="elmrb9q97dx8a"><polygon points="440.14 178.58 206.49 178.58 205.58 173.12 439.24 173.12 440.14 178.58" style="fill: rgb(224, 224, 224); opacity: 0.5; transform-origin: 322.86px 175.85px;" class="animable"></polygon></g><g id="elkpyf6bxkou"><polygon points="440.14 94.27 206.49 94.27 205.58 88.81 439.24 88.81 440.14 94.27" style="fill: rgb(224, 224, 224); opacity: 0.5; transform-origin: 322.86px 91.54px;" class="animable"></polygon></g><g id="elc0b9el09vrq"><polygon points="440.14 113 206.49 113 205.58 107.54 439.24 107.54 440.14 113" style="fill: rgb(224, 224, 224); opacity: 0.5; transform-origin: 322.86px 110.27px;" class="animable"></polygon></g><g id="elk0xvvkd1cr"><polygon points="440.14 131.74 206.49 131.74 205.58 126.28 439.24 126.28 440.14 131.74" style="fill: rgb(224, 224, 224); opacity: 0.5; transform-origin: 322.86px 129.01px;" class="animable"></polygon></g><g id="ela6oswxmomdi"><polygon points="440.14 150.47 206.49 150.47 205.58 145.01 439.24 145.01 440.14 150.47" style="fill: rgb(224, 224, 224); opacity: 0.5; transform-origin: 322.86px 147.74px;" class="animable"></polygon></g><g id="elbtymr6dnijs"><polygon points="440.14 169.21 206.49 169.21 205.58 163.75 439.24 163.75 440.14 169.21" style="fill: rgb(224, 224, 224); opacity: 0.5; transform-origin: 322.86px 166.48px;" class="animable"></polygon></g><g id="elvs6poscko9"><polygon points="440.14 187.95 206.49 187.95 205.58 182.49 439.24 182.49 440.14 187.95" style="fill: rgb(224, 224, 224); opacity: 0.5; transform-origin: 322.86px 185.22px;" class="animable"></polygon></g><rect x="399.87" y="289.64" width="30.94" height="92.76" style="fill: rgb(230, 230, 230); transform-origin: 415.34px 336.02px;" id="elnnrz39a0v5" class="animable"></rect><polygon points="411.96 382.4 430.81 382.4 430.81 371.75 392.2 371.75 411.96 382.4" style="fill: rgb(235, 235, 235); transform-origin: 411.505px 377.075px;" id="el4gwtvjsnbfx" class="animable"></polygon><rect x="307.13" y="289.64" width="30.94" height="92.76" style="fill: rgb(230, 230, 230); transform-origin: 322.6px 336.02px;" id="elwgcra37ntac" class="animable"></rect><rect x="321.63" y="289.64" width="109.18" height="90.55" style="fill: rgb(235, 235, 235); transform-origin: 376.22px 334.915px;" id="elvet4ys5kh9" class="animable"></rect><polygon points="340.48 382.4 321.63 382.4 321.63 371.75 360.24 371.75 340.48 382.4" style="fill: rgb(235, 235, 235); transform-origin: 340.935px 377.075px;" id="elgegccddf95k" class="animable"></polygon><rect x="336.25" y="300.08" width="79.94" height="46.65" style="fill: rgb(250, 250, 250); transform-origin: 376.22px 323.405px;" id="ely4w8kx896ue" class="animable"></rect><rect x="336.25" y="351.48" width="79.94" height="22.2" style="fill: rgb(250, 250, 250); transform-origin: 376.22px 362.58px;" id="eldow192a7kfd" class="animable"></rect><path d="M383.67,302.46h-14.9a4.3,4.3,0,0,1-4.29-4.3H388A4.3,4.3,0,0,1,383.67,302.46Z" style="fill: rgb(235, 235, 235); transform-origin: 376.24px 300.31px;" id="eloiaq4m14i98" class="animable"></path><path d="M383.67,353.85h-14.9a4.29,4.29,0,0,1-4.29-4.29H388A4.29,4.29,0,0,1,383.67,353.85Z" style="fill: rgb(235, 235, 235); transform-origin: 376.24px 351.705px;" id="eljnodmcho8om" class="animable"></path><rect x="282.32" y="289.64" width="30.94" height="92.76" style="fill: rgb(230, 230, 230); transform-origin: 297.79px 336.02px;" id="el603nbinsjf" class="animable"></rect><polygon points="294.42 382.4 313.26 382.4 313.26 371.75 274.66 371.75 294.42 382.4" style="fill: rgb(235, 235, 235); transform-origin: 293.96px 377.075px;" id="elxdavmxlhbzp" class="animable"></polygon><rect x="189.59" y="289.64" width="30.94" height="92.76" style="fill: rgb(230, 230, 230); transform-origin: 205.06px 336.02px;" id="el1dluh0qt8euh" class="animable"></rect><rect x="204.09" y="289.64" width="109.18" height="90.55" style="fill: rgb(235, 235, 235); transform-origin: 258.68px 334.915px;" id="elavhvslsqcdd" class="animable"></rect><polygon points="222.93 382.4 204.09 382.4 204.09 371.75 242.69 371.75 222.93 382.4" style="fill: rgb(235, 235, 235); transform-origin: 223.39px 377.075px;" id="elwwdl690vp58" class="animable"></polygon><rect x="218.71" y="300.08" width="79.94" height="46.65" style="fill: rgb(250, 250, 250); transform-origin: 258.68px 323.405px;" id="elt3mqu3s7cn" class="animable"></rect><rect x="218.71" y="351.48" width="79.94" height="22.2" style="fill: rgb(250, 250, 250); transform-origin: 258.68px 362.58px;" id="eloga5n3vybmb" class="animable"></rect><path d="M266.12,302.46H251.23a4.31,4.31,0,0,1-4.3-4.3h23.49A4.3,4.3,0,0,1,266.12,302.46Z" style="fill: rgb(235, 235, 235); transform-origin: 258.675px 300.31px;" id="eln4eg3m8eey" class="animable"></path><path d="M266.12,353.85H251.23a4.3,4.3,0,0,1-4.3-4.29h23.49A4.29,4.29,0,0,1,266.12,353.85Z" style="fill: rgb(235, 235, 235); transform-origin: 258.675px 351.705px;" id="eldrlw4jcl8sv" class="animable"></path><g id="el6vqq4gfkfi3"><rect x="204.41" y="285.74" width="226.4" height="3.89" style="fill: rgb(240, 240, 240); transform-origin: 317.61px 287.685px; transform: rotate(180deg);" class="animable"></rect></g><rect x="189.59" y="285.74" width="14.82" height="3.89" style="fill: rgb(224, 224, 224); transform-origin: 197px 287.685px;" id="elgs0cq7r7pts" class="animable"></rect><path d="M84.39,294.88c-1.41-36.34-2.91-72.47.17-90.7l5-3.54s-1.1,3.39-1.68,59.07-1.29,26.9-.68,35.17Z" style="fill: rgb(230, 230, 230); transform-origin: 86.158px 247.9px;" id="elwsep67tvyq" class="animable"></path><path d="M92.47,166c7.73-20.14,25.74-39.59,45.3-47.55,7.68-3.12-3.38,65.57-31.23,70-13.6,2.16-17.84,37-20.13,53.7C85.63,209.25,84.74,186.14,92.47,166Z" style="fill: rgb(230, 230, 230); transform-origin: 113.03px 180.248px;" id="eljcelkogoboc" class="animable"></path><path d="M90.82,217.13c5.44-8.62,14.33-20.7,27.32-20.71,14.72,0,1.84,24.24-15.47,32-8.45,3.78-15.5,15.78-17.33,23.3C85.5,236.47,85.38,225.75,90.82,217.13Z" style="fill: rgb(230, 230, 230); transform-origin: 104.952px 224.07px;" id="ele33qngmwpln" class="animable"></path><path d="M77.58,191.07c-9.46-16.76-30.54-33.62-53-41.29-8.81-3-9.68,46.64,37.82,58.52,15.35,3.84,21.5,31,24.68,44.66C86.83,226.43,87,207.83,77.58,191.07Z" style="fill: rgb(230, 230, 230); transform-origin: 53.4801px 201.305px;" id="elbvtf3hz0cfc" class="animable"></path><path d="M82.76,230.81c-6-10.68-22.42-15.9-37.16-14.9-5.78.39-6.42,22.31,25.77,30.78,9.76,2.57,13.7,19.76,15.73,28.46C86.93,258.25,88.78,241.5,82.76,230.81Z" style="fill: rgb(230, 230, 230); transform-origin: 64.8857px 245.47px;" id="elkd7thmrld39" class="animable"></path><path d="M83.38,174.38c-4.69-14.94-18.5-28.33-31.17-33.86-5-2.17-6.51,22.6,20.7,46.85,8.25,7.36,10.85,28.79,12.2,39.65C85.72,207.63,88.07,189.32,83.38,174.38Z" style="fill: rgb(230, 230, 230); transform-origin: 67.7729px 183.704px;" id="elmxe1kroffh8" class="animable"></path><path d="M85.86,309.78h0c-9.9,0-18.08-.72-18.64-14.11L65.57,278.1h40.59l-1.65,17.57C103.94,309.06,95.76,309.78,85.86,309.78Z" style="fill: rgb(240, 240, 240); transform-origin: 85.865px 293.94px;" id="ellj5hzv412zc" class="animable"></path><polygon points="106.31 285.34 65.42 285.34 64.25 277.11 107.48 277.11 106.31 285.34" style="fill: rgb(240, 240, 240); transform-origin: 85.865px 281.225px;" id="eltp3xxh7ah7l" class="animable"></polygon></g><g id="freepik--Shadow--inject-43" class="animable" style="transform-origin: 250px 416.24px;"><ellipse id="freepik--path--inject-43" cx="250" cy="416.24" rx="193.89" ry="11.32" style="fill: rgb(245, 245, 245); transform-origin: 250px 416.24px;" class="animable"></ellipse></g><g id="freepik--Board--inject-43" class="animable" style="transform-origin: 230.04px 189.435px;"><g id="el27x0ve9cvqm"><rect x="72.03" y="97.65" width="1" height="20.13" style="fill: rgb(64, 123, 255); transform-origin: 72.53px 107.715px; transform: rotate(-2.79deg);" class="animable"></rect></g><g id="elccamqx5lux"><rect x="73.09" y="124.55" width="1" height="9.89" style="fill: rgb(64, 123, 255); transform-origin: 73.59px 129.495px; transform: rotate(-2.79deg);" class="animable"></rect></g><path d="M386.74,301.72H86.67A1.78,1.78,0,0,1,84.9,300L74.14,79a1.77,1.77,0,0,1,1.77-1.85H376a1.78,1.78,0,0,1,1.78,1.68l10.76,221.08A1.78,1.78,0,0,1,386.74,301.72Z" style="fill: rgb(64, 123, 255); transform-origin: 231.339px 189.435px;" id="elxkjqifk7uds" class="animable"></path><g id="elvr7txxw3w9g"><path d="M88.35,296.4,77.94,82.58a1.78,1.78,0,0,1,1.77-1.86H372.52a1.77,1.77,0,0,1,1.77,1.69L384.7,296.23a1.77,1.77,0,0,1-1.77,1.86H90.12A1.78,1.78,0,0,1,88.35,296.4Z" style="fill: rgb(255, 255, 255); opacity: 0.8; transform-origin: 231.32px 189.405px;" class="animable"></path></g><path d="M161.9,286.14a.92.92,0,0,1-.91-.86L151.66,93.62a.91.91,0,1,1,1.81-.08l9.34,191.65a.91.91,0,0,1-.87.95Z" style="fill: rgb(255, 255, 255); transform-origin: 157.231px 189.362px;" id="elj9de86zxl5b" class="animable"></path><path d="M310.08,286.14a.92.92,0,0,1-.91-.86L299.84,93.62a.91.91,0,1,1,1.81-.08L311,285.19a.91.91,0,0,1-.87.95Z" style="fill: rgb(255, 255, 255); transform-origin: 305.416px 189.362px;" id="elcpnyf7qc1vk" class="animable"></path><path d="M236,286.14a.92.92,0,0,1-.91-.86L225.75,93.62a.91.91,0,1,1,1.81-.08l9.33,191.65a.9.9,0,0,1-.86.95Z" style="fill: rgb(255, 255, 255); transform-origin: 231.316px 189.362px;" id="elr5ojpxyjxtd" class="animable"></path><path d="M366.64,113.37H88.51a.91.91,0,1,1,0-1.81H366.64a.91.91,0,1,1,0,1.81Z" style="fill: rgb(255, 255, 255); transform-origin: 227.575px 112.465px;" id="elcupvx3xmtqw" class="animable"></path><path d="M96.89,102.17a4.47,4.47,0,0,1,4,.34c1,.64,1.61,2,2.87,2.3,1.43.29,1.87-.88,2.88-1.55,1.28-.85,3.23-.47,4.66-.36q5.69.42,11.37,1c3.74.36,7.52,1,11.25.27,1.29-.25.74-2.22-.54-2-3.82.75-7.87-.07-11.7-.44s-7.69-.72-11.55-1a8.63,8.63,0,0,0-3.91.42,4.71,4.71,0,0,0-1.56,1.12c-.16.16-.32.49-.58.45s-.55-.63-.65-.75a6.54,6.54,0,0,0-7.13-1.81c-1.21.48-.69,2.45.54,2Z" style="fill: rgb(255, 255, 255); transform-origin: 115.134px 102.311px;" id="elxm0tm71vev8" class="animable"></path><path d="M164.41,105.17c1.52-1.14,3.81-2.66,5.06-.38.63,1.14,1.24,2.51,2.81,2.27s2.61-2.19,3.71-3.11c1.64-1.39,3.3-1.8,5.22-.68a13.35,13.35,0,0,0,5,2.23,9.19,9.19,0,0,0,5.06-.81,8.27,8.27,0,0,1,2.93-1,30.32,30.32,0,0,1,3.26.43,26.2,26.2,0,0,0,6.94-.66c1.29-.24.74-2.21-.55-2a21.51,21.51,0,0,1-7.54.43,9,9,0,0,0-2.79-.2,9.57,9.57,0,0,0-2.54.83c-2.09.91-4.11,1.35-6.3.38-1.7-.75-3-2.14-4.92-2.42a6.12,6.12,0,0,0-4.44,1.31,17.57,17.57,0,0,0-2,1.82,9.14,9.14,0,0,1-.89,1c-.5.37-.54.33-.84-.22-.73-1.37-1.43-2.49-3.07-2.82-1.95-.39-3.63.67-5.12,1.79-1,.78,0,2.55,1,1.76Z" style="fill: rgb(255, 255, 255); transform-origin: 184.061px 103.768px;" id="el2ttwko5xvah" class="animable"></path><path d="M241,104.61c1.19-.56,2.4-1.07,3.64-1.51a12.5,12.5,0,0,1,3.81-1c1.15,0,2.16.66,3.26.9a4,4,0,0,0,2.52-.26c.72-.33,1.46-1.14,2.24-1.27s1.64.9,2.41,1.25a4.52,4.52,0,0,0,2.47.29c.77-.09,1.9-.49,2.62,0s.87,1.36,1.59,1.79a2.13,2.13,0,0,0,2.06.08c.72-.35,1.11-1,1.71-1.52.88-.74,1.9-.33,2.91-.09a7.52,7.52,0,0,0,2.79.26c1.05-.14,2.27-.81,3.33-.6,1.76.35,2.67,2.21,4.63,1.25,1.18-.58.15-2.34-1-1.76-.5.24-1.95-1-2.43-1.24a4.44,4.44,0,0,0-2.7-.16,9.06,9.06,0,0,1-3.3.45,28,28,0,0,0-2.84-.58,3.55,3.55,0,0,0-2.38.66c-.39.29-1.23,1.58-1.74,1.47-.23,0-.6-.81-.74-1a3.24,3.24,0,0,0-.83-.78,3.72,3.72,0,0,0-2.31-.44,7.84,7.84,0,0,1-2.72.19c-.86-.25-1.43-1.09-2.29-1.39-1.94-.67-2.87.92-4.53,1.41-1.07.31-2.17-.45-3.18-.72a6.27,6.27,0,0,0-3.19,0,37.57,37.57,0,0,0-6.81,2.58c-1.18.56-.15,2.32,1,1.76Z" style="fill: rgb(255, 255, 255); transform-origin: 261.495px 102.273px;" id="elex7crd1bc9" class="animable"></path><path d="M309.15,104.06l5.45-1.55c.86-.25,1.73-.55,2.6-.74a3.88,3.88,0,0,1,2.48.45,12.58,12.58,0,0,0,4.57.52c1.82,0,3.63,0,5.45-.07L352,102.4a1,1,0,0,0,0-2l-22.77.28c-1.79,0-3.58.06-5.37.07a13,13,0,0,1-2.64-.17c-.82-.18-1.51-.64-2.3-.86-1.49-.41-3.19.39-4.6.8l-5.68,1.62a1,1,0,0,0,.54,2Z" style="fill: rgb(255, 255, 255); transform-origin: 330.437px 101.891px;" id="elx74q9rzq8i" class="animable"></path><g id="eleh3god4syyh"><path d="M163.55,183.4,115.26,186a304.31,304.31,0,0,1-3.85-49.21L158.59,135A435.25,435.25,0,0,0,163.55,183.4Z" style="fill: rgb(64, 123, 255); opacity: 0.3; transform-origin: 137.479px 160.5px;" class="animable"></path></g><path d="M164.65,181.19l-48.29,2.6a357.64,357.64,0,0,1-5-48.42l48.29-2.61A435.66,435.66,0,0,0,164.65,181.19Z" style="fill: rgb(64, 123, 255); transform-origin: 138.005px 158.275px;" id="elkxy5hp7zj7" class="animable"></path><g id="eloyg2jce3m9b"><polygon points="224.37 201.15 175.82 198.22 175.82 150.1 224.37 153.03 224.37 201.15" style="fill: rgb(64, 123, 255); opacity: 0.3; transform-origin: 200.095px 175.625px;" class="animable"></polygon></g><polygon points="223.73 200.07 175.19 197.14 175.76 148.74 224.3 151.66 223.73 200.07" style="fill: rgb(255, 255, 255); transform-origin: 199.745px 174.405px;" id="elp1ida4u03dk" class="animable"></polygon><g id="el6m3s2v1zcbg"><path d="M270.65,191.72l48.53-1.59c1.2-11.17-4.08-39.24-7-49.22l-47.07,3C269.14,161.61,270.87,178.27,270.65,191.72Z" style="fill: rgb(64, 123, 255); opacity: 0.3; transform-origin: 292.232px 166.315px;" class="animable"></path></g><path d="M271.48,190.13l47-2.42c1.2-11.16-1.91-29.45-5.42-48.39l-48.24,3.06C268.8,160.1,271.7,176.68,271.48,190.13Z" style="fill: rgb(64, 123, 255); transform-origin: 291.781px 164.725px;" id="elcdjn7y4jfkr" class="animable"></path><g id="ellhieumuwb0l"><path d="M137.56,266.11l49.54-5c-.13-11.3-5.94-37.54-9.38-47.37L131,219.26C136,236.78,136.18,252.66,137.56,266.11Z" style="fill: rgb(64, 123, 255); opacity: 0.3; transform-origin: 159.05px 239.925px;" class="animable"></path></g><path d="M138.73,265.42l47.76-5.19c.59-11.24-3.51-29.39-8-48.15l-47.88,5.69C134.46,235.33,138.21,252,138.73,265.42Z" style="fill: rgb(64, 123, 255); transform-origin: 158.578px 238.75px;" id="elcv2cspl5l7a" class="animable"></path><g id="el2rv853f8ury"><path d="M258,212.21l48.22,9c3.62-10.52,4.55-38.77,3.85-49L263,164.84C263.05,182.82,261.11,199.28,258,212.21Z" style="fill: rgb(64, 123, 255); opacity: 0.3; transform-origin: 284.143px 193.025px;" class="animable"></path></g><path d="M259.13,210.86l46.85,7.9c3.63-10.52,4.55-28.85,5.23-47.89l-48.27-7.56C263,181.29,262.28,197.93,259.13,210.86Z" style="fill: rgb(255, 255, 255); transform-origin: 285.17px 191.035px;" id="elx3j987s1zg" class="animable"></path></g><g id="freepik--Character--inject-43" class="animable" style="transform-origin: 352.69px 267.294px;"><path d="M372.64,167.28c1,1,1.76,1.9,2.59,2.88s1.63,1.93,2.41,2.92c1.58,2,3.08,4,4.51,6.1s2.79,4.25,4,6.53a56.72,56.72,0,0,1,3.39,7.11l.37.93.09.23.12.35.22.68c.11.44.21.86.3,1.28s.14.8.19,1.19a28.9,28.9,0,0,1,.15,4.3,57.41,57.41,0,0,1-.87,7.74A93.17,93.17,0,0,1,386.26,224L381,222.78c.39-4.7.75-9.5.88-14.12a64.62,64.62,0,0,0-.11-6.72,19.43,19.43,0,0,0-.43-2.92l-.15-.59L381,198l-.57-1.15a78.86,78.86,0,0,0-7.15-11.38c-1.36-1.85-2.79-3.66-4.23-5.46-.72-.91-1.46-1.8-2.2-2.68l-2.2-2.55Z" style="fill: rgb(182, 91, 82); transform-origin: 377.826px 195.64px;" id="elaylhxo8ikgf" class="animable"></path><path d="M381.64,220.81,378,224.72l7.12,4.2s2.46-3.27,1.5-6.62Z" style="fill: rgb(181, 91, 82); transform-origin: 382.421px 224.865px;" id="el469n73967j2" class="animable"></path><polygon points="373.26 230.5 380.19 232.93 385.11 228.92 377.99 224.72 373.26 230.5" style="fill: rgb(181, 91, 82); transform-origin: 379.185px 228.825px;" id="elk03g5p1uuo" class="animable"></polygon><path d="M393.22,246.52l-45.77-10a342.17,342.17,0,0,1,10-45.77l45.78,10A415.45,415.45,0,0,0,393.22,246.52Z" style="fill: rgb(64, 123, 255); transform-origin: 375.34px 218.635px;" id="elfiulhgsavrm" class="animable"></path><g id="eluk575nct8g"><rect x="347.86" y="195.31" width="46.85" height="46.85" style="fill: rgb(255, 255, 255); transform-origin: 371.285px 218.735px; transform: rotate(16.58deg);" class="animable"></rect></g><path d="M346.7,137.28c0,.58-.36,1-.74,1s-.66-.49-.63-1.07.36-1,.74-1S346.73,136.7,346.7,137.28Z" style="fill: rgb(38, 50, 56); transform-origin: 346.015px 137.245px;" id="el3ysv9rkiijp" class="animable"></path><path d="M346.39,138.32a21,21,0,0,1-3,4.85,3.31,3.31,0,0,0,2.74.63Z" style="fill: rgb(160, 39, 36); transform-origin: 344.89px 141.097px;" id="elethiqw8olo" class="animable"></path><path d="M349,134.15a.36.36,0,0,0,.21-.13.34.34,0,0,0,0-.48,3.37,3.37,0,0,0-3-.65.34.34,0,0,0-.22.43.34.34,0,0,0,.43.22h0a2.65,2.65,0,0,1,2.39.54A.38.38,0,0,0,349,134.15Z" style="fill: rgb(38, 50, 56); transform-origin: 347.641px 133.464px;" id="elxawz0c4qdt" class="animable"></path><path d="M364.1,145.6c-1.1,5.27-1.81,12.56,1.82,16.07,0,0-1.5,5.34-11.29,5.34-10.75,0-5.11-4.68-5.11-4.68,4.49-1.39,4.52-6.48,3.55-10.57Z" style="fill: rgb(181, 91, 82); transform-origin: 356.981px 156.305px;" id="elsqff3zukxg" class="animable"></path><path d="M341.33,409.26c-.92,0-1.81-.13-2.11-.54a.65.65,0,0,1,0-.75.84.84,0,0,1,.54-.4c1.2-.32,3.7,1.11,3.8,1.17a.17.17,0,0,1,.09.18.2.2,0,0,1-.14.14A12.86,12.86,0,0,1,341.33,409.26Zm-1.12-1.4a1.57,1.57,0,0,0-.33,0,.55.55,0,0,0-.34.24c-.12.21-.08.32,0,.38.33.46,2.15.47,3.49.28A7.63,7.63,0,0,0,340.21,407.86Z" style="fill: rgb(64, 123, 255); transform-origin: 341.377px 408.392px;" id="elypajozxubw" class="animable"></path><path d="M343.51,409.06h-.07c-.87-.39-2.57-1.95-2.43-2.76,0-.19.18-.43.64-.48a1.23,1.23,0,0,1,1,.29c.9.75,1.07,2.69,1.08,2.77a.24.24,0,0,1-.07.16A.19.19,0,0,1,343.51,409.06Zm-1.72-2.92h-.11c-.3,0-.32.15-.33.19-.09.49,1.07,1.71,1.95,2.24a4,4,0,0,0-.92-2.21A.91.91,0,0,0,341.79,406.14Z" style="fill: rgb(64, 123, 255); transform-origin: 342.366px 407.436px;" id="eln5czgxr1w1c" class="animable"></path><polygon points="351.72 408.89 344.52 408.89 344.02 392.23 351.22 392.23 351.72 408.89" style="fill: rgb(181, 91, 82); transform-origin: 347.87px 400.56px;" id="elb2rh3t6pq6" class="animable"></polygon><path d="M344.28,408.06h7.86a.62.62,0,0,1,.61.49l1.34,6.39a1.06,1.06,0,0,1-1.06,1.28c-2.83,0-6.92-.21-10.49-.21-4.16,0-6.79.23-11.68.23-2.95,0-3.73-3-2.49-3.26,5.64-1.23,9.27-1.36,14.17-4.36A3.32,3.32,0,0,1,344.28,408.06Z" style="fill: rgb(38, 50, 56); transform-origin: 340.958px 412.15px;" id="el70prrulj6vq" class="animable"></path><path d="M368.81,162.53c6.9.08,16.55,17.58,16.55,17.58L374.66,191a25.6,25.6,0,0,1-10.9-11.23C359.68,171.45,361.76,162.46,368.81,162.53Z" style="fill: rgb(64, 123, 255); transform-origin: 373.524px 176.765px;" id="el53lt1wwa3nk" class="animable"></path><g id="elfjlhoasipp7"><path d="M368.81,162.53c6.9.08,16.55,17.58,16.55,17.58L374.66,191a25.6,25.6,0,0,1-10.9-11.23C359.68,171.45,361.76,162.46,368.81,162.53Z" style="opacity: 0.3; transform-origin: 373.524px 176.765px;" class="animable"></path></g><path d="M336.08,170.51c-1.57,7.77-2.7,23.74,1.17,55.35h38.48c.3-5.12-2.18-27.47,1.11-51.47a11.21,11.21,0,0,0-10.49-12.69l-.43,0a143.91,143.91,0,0,0-16.36,0c-1.8.17-3.58.43-5.16.71A10.33,10.33,0,0,0,336.08,170.51Z" style="fill: rgb(64, 123, 255); transform-origin: 355.783px 193.664px;" id="elwudi8lnhpf" class="animable"></path><g id="elpmdmwlsk8q"><path d="M336.08,170.51c-1.57,7.77-2.7,23.74,1.17,55.35h38.48c.3-5.12-2.18-27.47,1.11-51.47a11.21,11.21,0,0,0-10.49-12.69l-.43,0a143.91,143.91,0,0,0-16.36,0c-1.8.17-3.58.43-5.16.71A10.33,10.33,0,0,0,336.08,170.51Z" style="opacity: 0.2; transform-origin: 355.783px 193.664px;" class="animable"></path></g><g id="elzcnzmdac9y"><path d="M344.93,186.52,339.75,183c-5,1.63-5.26,6.49-5,13.51C339.05,195.43,344,191.35,344.93,186.52Z" style="opacity: 0.2; transform-origin: 339.806px 189.755px;" class="animable"></path></g><g id="elp7a3721zrpo"><polygon points="344.02 392.23 344.28 400.82 351.48 400.82 351.22 392.23 344.02 392.23" style="opacity: 0.2; transform-origin: 347.75px 396.525px;" class="animable"></polygon></g><path d="M366.1,136.84c-.82,7.1-.94,11.3-4.73,14.81-5.7,5.27-14.31,1.66-15.63-5.52-1.19-6.46.35-17,7.47-19.55A9.62,9.62,0,0,1,366.1,136.84Z" style="fill: rgb(181, 91, 82); transform-origin: 355.778px 140.067px;" id="elvo0sc1q47cq" class="animable"></path><path d="M350.94,139.88c-2.21.5-3.21-4.71-1-6.71-2-1-4.89-2.45-5.85-4.63-1.11-2.5,1.89-5.5,4.48-5.37-.84-1.67,1-6.13,6.28-4.45s7.76,4.28,7.76,4.28,1.74-5.78,5.41-1.11c3.25,4.14,2,7.69,2,7.69s4.84,4.59,3.59,8a8.33,8.33,0,0,1-4,4.63s.73,8-5.15,10-9.59-2-9.09-4.34C351.57,148,347.69,143,350.94,139.88Z" style="fill: rgb(38, 50, 56); transform-origin: 358.834px 135.55px;" id="elsgly7xdqnqo" class="animable"></path><path d="M353.5,139.35a8.26,8.26,0,0,1-2.36,4.64c-1.69,1.63-3.25.46-3.38-1.65-.12-1.9.62-5,2.6-5.88S353.77,137.23,353.5,139.35Z" style="fill: rgb(181, 91, 82); transform-origin: 350.64px 140.487px;" id="elz2xofl0fap" class="animable"></path><polygon points="412.8 399.81 406.4 402.11 400.04 385.64 406.44 383.35 412.8 399.81" style="fill: rgb(181, 91, 82); transform-origin: 406.42px 392.73px;" id="elymkmlgb96qf" class="animable"></polygon><path d="M403.56,403.15c-.72.57-1.5,1-2,.88a.65.65,0,0,1-.44-.6.87.87,0,0,1,.18-.65c.75-1,3.59-1.42,3.71-1.43a.18.18,0,0,1,.18.08.2.2,0,0,1,0,.2A13.28,13.28,0,0,1,403.56,403.15Zm-1.74-.4a.91.91,0,0,0-.24.24.54.54,0,0,0-.11.39c0,.24.13.3.2.32.54.16,2-.95,2.92-1.93A7.55,7.55,0,0,0,401.82,402.75Z" style="fill: rgb(64, 123, 255); transform-origin: 403.165px 402.699px;" id="el6dhorbey4wv" class="animable"></path><path d="M405.15,401.65a.09.09,0,0,1-.06,0c-.92.23-3.22.06-3.61-.67-.09-.17-.13-.44.21-.77a1.24,1.24,0,0,1,.92-.35c1.17,0,2.5,1.45,2.56,1.51a.16.16,0,0,1,0,.16A.15.15,0,0,1,405.15,401.65ZM402,400.42a.27.27,0,0,0-.08.07c-.22.21-.16.32-.14.36.23.43,1.89.68,2.91.56a3.87,3.87,0,0,0-2.09-1.18A.88.88,0,0,0,402,400.42Z" style="fill: rgb(64, 123, 255); transform-origin: 403.304px 400.802px;" id="elttu7o8qilo" class="animable"></path><path d="M405.18,400.35l6.18-4.86a.66.66,0,0,1,.8,0l5.31,4a1,1,0,0,1,0,1.61c-2.26,1.71-6.62,5.23-9.28,7.59-3.11,2.77-.69.92-4.34,4.17-2.21,2-4.91.36-4.17-.65,3.34-4.62,4.05-7.37,4.49-10.32A2.44,2.44,0,0,1,405.18,400.35Z" style="fill: rgb(38, 50, 56); transform-origin: 408.716px 404.58px;" id="el14nntgnfbpt" class="animable"></path><path d="M300.07,188.37l-2.81-6.05-7.65,4.73s2.52,5.15,7.74,4.59Z" style="fill: rgb(181, 91, 82); transform-origin: 294.84px 187.001px;" id="el6m24kfo5sp3" class="animable"></path><path d="M290.07,180.68l-1.71,1.47a2.46,2.46,0,0,0-.08,3.66l1.33,1.24,7.65-4.73-4.59-2A2.47,2.47,0,0,0,290.07,180.68Z" style="fill: rgb(181, 91, 82); transform-origin: 292.382px 183.576px;" id="elgbfjj3jyqdu" class="animable"></path><g id="elyelyncre8l9"><polygon points="400.04 385.64 403.32 394.13 409.72 391.84 406.44 383.35 400.04 385.64" style="opacity: 0.2; transform-origin: 404.88px 388.74px;" class="animable"></polygon></g><path d="M350.9,225.86s12,55.27,16.6,75.79c5,22.46,31.49,90.77,31.49,90.77l11.62-6.3s-12.43-53.59-21.51-82.82c-3.3-24.16-13.37-77.44-13.37-77.44Z" style="fill: rgb(38, 50, 56); transform-origin: 380.755px 309.14px;" id="el1zix28m00wf" class="animable"></path><path d="M395.72,389c-.06,0,2.38,4.51,2.38,4.51l14.38-5.4-1.14-4.39Z" style="fill: rgb(64, 123, 255); transform-origin: 404.099px 388.615px;" id="el016jiu3p4tfg" class="animable"></path><g id="eldk9adxdfqrc"><path d="M358,251.48c9.06,1.21,10.08,33.12,9.91,51.85-.12-.59-.26-1.15-.37-1.68-2.51-11.21-7.22-32.79-11-50.07A3.31,3.31,0,0,1,358,251.48Z" style="opacity: 0.3; transform-origin: 362.233px 277.385px;" class="animable"></path></g><path d="M337.25,225.86s-3.06,53.8-2.56,75.74c.52,22.83,6.93,97.56,6.93,97.56h12.19s2-73.4,2.82-95.81c.91-24.44,5.92-77.49,5.92-77.49Z" style="fill: rgb(38, 50, 56); transform-origin: 348.592px 312.51px;" id="elako32h16qrq" class="animable"></path><path d="M339.34,394.3c-.06,0,.62,5.06.62,5.06h14.83l.46-4.51Z" style="fill: rgb(64, 123, 255); transform-origin: 347.293px 396.83px;" id="eljn6t8sn194" class="animable"></path><path d="M347.62,174.23a78.43,78.43,0,0,1-5.55,8.53,88.78,88.78,0,0,1-6.49,7.69c-2.28,2.43-4.69,4.73-7.16,6.91s-5.05,4.26-7.37,6.17l-.82.68-.68.24a11.27,11.27,0,0,1-5.17.57A16.7,16.7,0,0,1,310.2,204a27.55,27.55,0,0,1-6.29-3.71,45.3,45.3,0,0,1-5-4.52c-.76-.79-1.48-1.62-2.19-2.45s-1.37-1.67-2.06-2.62l3.95-3.69c1.53,1.14,3.18,2.38,4.83,3.44a53.69,53.69,0,0,0,4.94,3,21.86,21.86,0,0,0,4.77,1.94,6.66,6.66,0,0,0,1.89.23,1.8,1.8,0,0,0,.95-.26l-1.49.92c2.44-2.28,4.65-4.32,6.85-6.47s4.27-4.33,6.26-6.58,3.89-4.57,5.64-7,3.37-4.87,4.9-7.37Z" style="fill: rgb(182, 91, 82); transform-origin: 321.14px 186.983px;" id="eldr4socitvyi" class="animable"></path><path d="M352.74,172.72c-.69,10.35-12.56,19-12.56,19l-15.4-8.45s5.67-12.19,13.31-17.95C347.54,158.25,353.26,164.84,352.74,172.72Z" style="fill: rgb(64, 123, 255); transform-origin: 338.776px 177.016px;" id="eldp3fvp4dq5o" class="animable"></path><g id="eltczl6y59qb8"><path d="M352.74,172.72c-.69,10.35-12.56,19-12.56,19l-15.4-8.45s5.67-12.19,13.31-17.95C347.54,158.25,353.26,164.84,352.74,172.72Z" style="opacity: 0.2; transform-origin: 338.776px 177.016px;" class="animable"></path></g></g><defs>     <filter id="active" height="200%">         <feMorphology in="SourceAlpha" result="DILATED" operator="dilate" radius="2"></feMorphology>                <feFlood flood-color="#32DFEC" flood-opacity="1" result="PINK"></feFlood>        <feComposite in="PINK" in2="DILATED" operator="in" result="OUTLINE"></feComposite>        <feMerge>            <feMergeNode in="OUTLINE"></feMergeNode>            <feMergeNode in="SourceGraphic"></feMergeNode>        </feMerge>    </filter>    <filter id="hover" height="200%">        <feMorphology in="SourceAlpha" result="DILATED" operator="dilate" radius="2"></feMorphology>                <feFlood flood-color="#ff0000" flood-opacity="0.5" result="PINK"></feFlood>        <feComposite in="PINK" in2="DILATED" operator="in" result="OUTLINE"></feComposite>        <feMerge>            <feMergeNode in="OUTLINE"></feMergeNode>            <feMergeNode in="SourceGraphic"></feMergeNode>        </feMerge>            <feColorMatrix type="matrix" values="0   0   0   0   0                0   1   0   0   0                0   0   0   0   0                0   0   0   1   0 "></feColorMatrix>    </filter></defs></svg>